<svg width="21" height="24" viewBox="0 0 21 24" fill="none" xmlns="http://www.w3.org/2000/svg">
<path d="M8.2503 9.89893C7.57268 9.89893 7.03772 10.4889 7.03772 11.2086C7.03772 11.9283 7.58457 12.5182 8.2503 12.5182C8.92792 12.5182 9.46288 11.9283 9.46288 11.2086C9.47477 10.4889 8.92792 9.89893 8.2503 9.89893ZM12.5894 9.89893C11.9118 9.89893 11.3769 10.4889 11.3769 11.2086C11.3769 11.9283 11.9237 12.5182 12.5894 12.5182C13.2671 12.5182 13.802 11.9283 13.802 11.2086C13.802 10.4889 13.2671 9.89893 12.5894 9.89893Z" fill="#A6A6A6"/>
<path d="M18.367 0H2.43705C1.0937 0 0 1.08547 0 2.43051V18.3822C0 19.7273 1.0937 20.8128 2.43705 20.8128H15.9181L15.288 18.63L16.8097 20.034L18.2482 21.3555L20.8041 23.5972V2.43051C20.8041 1.08547 19.7104 0 18.367 0ZM13.7782 15.409C13.7782 15.409 13.3503 14.9016 12.9936 14.4533C14.551 14.0168 15.1454 13.0493 15.1454 13.0493C14.658 13.3678 14.1943 13.592 13.7782 13.7454C13.1838 13.9932 12.6132 14.1583 12.0545 14.2527C10.9132 14.4651 9.86708 14.4061 8.97548 14.2409C8.29786 14.1111 7.71534 13.9224 7.22793 13.7336C6.95451 13.6274 6.65731 13.4976 6.36011 13.3324C6.32444 13.3088 6.28878 13.297 6.25311 13.2734C6.22934 13.2616 6.21745 13.2498 6.20556 13.238C5.99158 13.1201 5.8727 13.0375 5.8727 13.0375C5.8727 13.0375 6.44332 13.9814 7.9531 14.4297C7.59646 14.8781 7.15661 15.409 7.15661 15.409C4.52935 15.3264 3.53075 13.6156 3.53075 13.6156C3.53075 9.81645 5.24263 6.73701 5.24263 6.73701C6.95451 5.46276 8.58317 5.49815 8.58317 5.49815L8.70205 5.63974C6.5622 6.25327 5.5755 7.18536 5.5755 7.18536C5.5755 7.18536 5.83703 7.04377 6.27689 6.8432C7.54891 6.28866 8.55939 6.13528 8.97548 6.09988C9.04681 6.08808 9.10625 6.07629 9.17757 6.07629C9.90274 5.9819 10.723 5.9583 11.579 6.05269C12.7083 6.18247 13.9209 6.51284 15.1573 7.18536C15.1573 7.18536 14.2181 6.30046 12.1971 5.68693L12.3636 5.49815C12.3636 5.49815 13.9922 5.46276 15.7041 6.73701C15.7041 6.73701 17.416 9.81645 17.416 13.6156C17.416 13.6156 16.4055 15.3264 13.7782 15.409Z" fill="#A6A6A6"/>
</svg>
