<svg width="24" height="23" viewBox="0 0 24 23" fill="none" xmlns="http://www.w3.org/2000/svg">
<g clip-path="url(#clip0)">
<path d="M9.01218 20.2777C9.01218 20.996 9.02415 21.7296 9.00762 22.4626C8.99793 22.8951 8.60581 23.1024 8.12593 22.9448C6.85383 22.5275 5.68546 21.9114 4.63165 21.0931C2.1302 19.1494 0.597643 16.6218 0.129726 13.5074C-0.757094 7.60227 2.9492 2.04667 8.80814 0.433859C14.9942 -1.26987 21.4818 2.19349 23.4401 8.24434C25.4035 14.311 22.0295 20.9068 15.9261 22.933C15.3299 23.1306 14.9845 22.8867 14.9851 22.2638C14.9857 21.3789 14.9788 20.494 14.9942 19.6091C15.0108 18.67 14.9298 17.7648 14.2163 17.0114C14.6614 16.9318 15.0717 16.8736 15.4747 16.7833C16.769 16.4925 17.9129 15.9498 18.696 14.8305C19.2625 14.0207 19.5303 13.1025 19.5999 12.1352C19.6421 11.5479 19.6466 10.9482 19.5782 10.3643C19.4825 9.54486 19.1143 8.82034 18.57 8.19295C18.4572 8.06307 18.4452 7.95803 18.4936 7.7937C18.7689 6.86815 18.6942 5.95275 18.3483 5.05938C18.3147 4.97186 18.1596 4.87924 18.0593 4.87755C17.4871 4.86625 16.9565 5.05148 16.4521 5.29487C16.0184 5.50438 15.6092 5.76301 15.1812 5.98494C15.0769 6.03915 14.931 6.07642 14.8221 6.04988C12.9419 5.59812 11.0651 5.59586 9.1843 6.04819C9.06803 6.07642 8.90617 6.03746 8.80073 5.97365C8.01422 5.49365 7.21346 5.05091 6.28617 4.89618C6.21151 4.88376 6.13514 4.8815 6.06048 4.86908C5.78805 4.8239 5.65696 4.93684 5.5766 5.20226C5.30816 6.08772 5.23977 6.96923 5.51619 7.86542C5.54013 7.94392 5.51562 8.07267 5.46205 8.13366C4.39285 9.36416 4.20135 10.807 4.4088 12.3481C4.54103 13.3307 4.82999 14.2557 5.46148 15.0474C6.23602 16.0181 7.29667 16.5066 8.47758 16.781C8.89078 16.877 9.31253 16.9369 9.76563 17.0199C9.3644 17.4496 9.15238 17.9426 9.05264 18.4898C9.04181 18.5503 8.94777 18.6129 8.87824 18.6423C7.54858 19.2036 6.34602 18.8326 5.57375 17.6281C5.18848 17.0272 4.68921 16.5704 3.96312 16.423C3.79099 16.388 3.60121 16.3857 3.42908 16.4174C3.135 16.4716 3.09852 16.6297 3.31453 16.846C3.39432 16.9256 3.48095 17.0041 3.57784 17.0611C4.21959 17.4395 4.62196 18.0144 4.89667 18.6785C5.35034 19.7751 6.22291 20.2636 7.35651 20.3364C7.89168 20.3715 8.43255 20.302 9.01218 20.2777Z" fill="#A6A6A6"/>
<path d="M5.89541 18.3203C6.0225 18.4812 6.10742 18.5761 6.17012 18.6834C6.17866 18.6975 6.04074 18.8257 6.0282 18.8172C5.9296 18.7506 5.83385 18.6721 5.76375 18.5778C5.74551 18.554 5.82074 18.4614 5.89541 18.3203Z" fill="#F1F2F2"/>
<path d="M6.79373 19.3396C6.69969 19.2289 6.62902 19.1459 6.55835 19.0634C6.62902 19.0194 6.72249 18.9234 6.76638 18.942C6.8701 18.9855 6.94989 19.0837 7.03994 19.16C6.97212 19.2091 6.9043 19.2582 6.79373 19.3396Z" fill="#F1F2F2"/>
<path d="M8.72873 18.9019C8.81935 19.003 8.87806 19.0679 8.93676 19.1329C8.84329 19.195 8.75609 19.2893 8.65464 19.3074C8.59537 19.3181 8.51387 19.2069 8.44263 19.1504C8.5247 19.0787 8.60677 19.0075 8.72873 18.9019Z" fill="#F1F2F2"/>
<path d="M7.75915 19.0216C7.87028 19.1165 7.94722 19.182 8.02417 19.2481C7.93981 19.3091 7.85603 19.4158 7.77054 19.4169C7.68961 19.4175 7.60811 19.3074 7.52661 19.2458C7.59272 19.1814 7.65941 19.1176 7.75915 19.0216Z" fill="#F1F2F2"/>
<path d="M5.62306 18.0193C5.51534 18.082 5.42985 18.1514 5.41332 18.1379C5.32897 18.069 5.25602 17.9826 5.19731 17.8911C5.1899 17.8798 5.32669 17.751 5.33866 17.759C5.42757 17.8211 5.5028 17.9041 5.62306 18.0193Z" fill="#F1F2F2"/>
<path d="M5.13702 17.3676C5.02703 17.4235 4.95293 17.4834 4.93071 17.4681C4.85377 17.4162 4.78936 17.3416 4.73579 17.2648C4.72781 17.2535 4.83154 17.1423 4.84009 17.1474C4.929 17.201 5.00879 17.2688 5.13702 17.3676Z" fill="#F1F2F2"/>
</g>
<defs>
<clipPath id="clip0">
<rect width="24" height="23" fill="white"/>
</clipPath>
</defs>
</svg>
