<svg width="28" height="27" viewBox="0 0 28 27" fill="none" xmlns="http://www.w3.org/2000/svg">
<path d="M27.8018 12.2978C27.7594 11.5699 27.6026 10.8601 27.4237 10.1582C26.7287 7.42952 25.2923 5.14208 23.1677 3.31463C20.0599 0.64142 16.4321 -0.412795 12.3837 0.142353C9.12151 0.58987 6.37261 2.09103 4.18062 4.55804C2.18559 6.80526 1.06045 9.43938 0.80633 12.4411C0.792181 12.6077 0.824441 12.6898 0.98744 12.7567C3.29262 13.6993 5.59554 14.6481 7.89733 15.5993C8.02127 15.6502 8.11466 15.6468 8.23351 15.5749C8.79948 15.2327 9.42034 15.0628 10.0791 15.0498C10.2523 15.0464 10.3463 14.9858 10.4402 14.8487C11.3141 13.5684 12.1885 12.2876 13.0782 11.0181C13.3934 10.5689 13.5977 10.1254 13.6651 9.54644C14.0098 6.60529 16.6845 4.62489 19.5947 5.0843C22.3057 5.51256 24.3381 8.12798 23.8276 11.0487C23.3941 13.5276 21.3498 15.2622 18.8505 15.3234C18.6999 15.3273 18.5839 15.3727 18.4651 15.4588C17.7219 15.9958 16.9749 16.5271 16.2295 17.0602C15.6324 17.4845 15.05 17.9331 14.432 18.3251C14.0494 18.5676 13.8994 18.8559 13.8479 19.3085C13.5496 21.9109 10.5789 23.6075 7.97826 21.9257C7.2459 21.4521 6.76313 20.7145 6.53165 19.8501C6.49033 19.6954 6.42298 19.611 6.27696 19.5533C5.76024 19.3493 5.24747 19.1352 4.73357 18.9222C4.07422 18.6492 3.41657 18.3722 2.75665 18.0991C2.30444 17.9122 1.84997 17.7298 1.35758 17.5298C1.38475 17.6363 1.3955 17.6901 1.41248 17.7417C2.24445 20.2846 3.69899 22.4026 5.77269 24.0856C7.68962 25.6418 9.87481 26.6002 12.3204 26.9656C12.6073 27.0087 16.0676 27.0121 16.4106 26.9543C18.881 26.5385 21.0821 25.5574 23.0098 23.9378C25.0076 22.2593 26.3942 20.1849 27.2138 17.7184C27.2664 17.5593 27.7022 15.7001 27.7961 14.9178C27.8035 14.8611 27.8046 12.3482 27.8018 12.2978Z" fill="#A6A6A6"/>
<path d="M18.8364 13.6096C20.8099 13.5275 22.2073 11.9572 22.1824 10.0873C22.1009 8.13519 20.5275 6.66178 18.6015 6.73373C16.7491 6.80284 15.26 8.43259 15.3285 10.3156C15.3953 12.1509 17.0258 13.685 18.8364 13.6096ZM18.6207 7.58514C20.1307 7.51603 21.2321 8.67221 21.3006 9.82896C21.4008 11.521 20.3928 12.6755 18.8256 12.7469C17.4333 12.7514 16.2742 11.7918 16.1876 10.2561C16.1107 8.88861 17.2454 7.64802 18.6207 7.58514Z" fill="#A6A6A6"/>
<path d="M10.4968 20.8871C9.96258 21.0134 9.45717 20.9001 8.96364 20.6809C8.5154 20.4821 8.0581 20.3025 7.55212 20.0923C7.6008 20.1943 7.61834 20.2362 7.64041 20.2753C8.64104 22.0393 11.1545 22.2246 12.4076 20.6271C13.2905 19.5015 13.2322 17.7987 12.2791 16.8861C11.4528 15.9854 10.2144 15.6948 9.18494 16.123C9.36548 16.2001 9.52565 16.2652 9.68299 16.3372C10.2688 16.604 10.9043 16.7666 11.4267 17.1671C11.4771 17.222 11.5275 17.277 11.5784 17.3319C12.7081 18.5578 12.1189 20.5036 10.4968 20.8871Z" fill="#A6A6A6"/>
</svg>
