<svg width="25" height="20" viewBox="0 0 25 20" fill="none" xmlns="http://www.w3.org/2000/svg">
<path d="M0 17.7646C2.78844 18.0115 5.29843 17.3255 7.5269 15.6538C6.43666 15.6074 5.4512 15.2791 4.57931 14.6406C3.70633 14.0012 3.10409 13.1694 2.75278 12.1402C3.53001 12.2726 4.28017 12.2549 5.02835 12.0525C3.84038 11.779 2.85051 11.1934 2.08495 10.2603C1.3196 9.32763 0.955087 8.25562 0.947163 7.07366C1.3207 7.21234 1.6861 7.36505 2.06272 7.48255C2.43912 7.60006 2.83092 7.65665 3.26653 7.66442C2.1468 6.88812 1.42085 5.87875 1.12348 4.59614C0.826099 3.31353 1.02112 2.09443 1.67861 0.937098C4.46111 4.1542 7.98012 5.92109 12.2836 6.21333C12.2559 6.04075 12.2297 5.89711 12.2101 5.75282C12.073 4.74388 12.207 3.77188 12.6706 2.85885C13.4174 1.38789 14.614 0.450233 16.2528 0.115649C17.8028 -0.200792 19.2255 0.135089 20.4852 1.08722C20.6674 1.22503 20.8261 1.39221 21.0014 1.53952C21.0359 1.56868 21.1002 1.58791 21.144 1.57905C22.2419 1.35895 23.2749 0.969714 24.2446 0.418913C24.2633 0.408329 24.2829 0.399689 24.3207 0.381113C23.9131 1.5676 23.1754 2.47696 22.1171 3.14721C23.1129 3.04051 24.0647 2.77764 24.9822 2.38754C24.9881 2.3951 24.9941 2.40266 25 2.41022C24.8085 2.65819 24.6238 2.91177 24.424 3.15304C23.8662 3.82632 23.2307 4.42096 22.5166 4.93332C22.4627 4.97198 22.4425 5.01 22.4469 5.07588C22.4896 5.70919 22.459 6.34142 22.3947 6.97128C22.2206 8.67941 21.7517 10.3089 21.0047 11.8604C20.2301 13.469 19.2015 14.9024 17.8955 16.139C16.3714 17.5819 14.6028 18.6303 12.5891 19.2779C11.7186 19.5578 10.828 19.7496 9.91935 19.8671C9.01203 19.9844 8.10096 20.0253 7.18836 19.9849C4.63566 19.8717 2.27183 19.1507 0.0988325 17.8298C0.0651546 17.8091 0.0330175 17.7862 0 17.7646Z" fill="#A6A6A6"/>
</svg>
