<svg width="29" height="20" viewBox="0 0 29 20" fill="none" xmlns="http://www.w3.org/2000/svg">
<path d="M14.6109 20C13.3314 19.9818 12.1598 19.9681 10.9881 19.9472C10.1474 19.9323 9.30652 19.9141 8.46613 19.8855C7.48667 19.852 6.50756 19.8088 5.53037 19.7301C5.02767 19.6896 4.52375 19.665 4.02471 19.5878C3.63481 19.5274 3.25169 19.4415 2.87711 19.3167C1.86788 18.9801 1.17929 18.3191 0.79739 17.3414C0.590254 16.8109 0.464405 16.2604 0.382247 15.7001C0.257965 14.8517 0.186947 13.9981 0.131595 13.1428C0.0670169 12.1387 0.0259378 11.1341 0.00278725 10.1287C-0.0109638 9.52876 0.0294191 8.92914 0.0529177 8.32968C0.0732832 7.81031 0.1074 7.29127 0.136817 6.77224C0.171804 6.15615 0.228897 5.54195 0.298522 4.92878C0.361707 4.37202 0.445084 3.81921 0.59095 3.27702C0.666842 2.99513 0.762229 2.71992 0.881811 2.45295C1.27137 1.58326 1.9302 1.0037 2.83585 0.688366C3.35822 0.506609 3.89817 0.401842 4.44699 0.348858C5.49747 0.247349 6.55108 0.182534 7.60556 0.138809C8.56761 0.0988571 9.53001 0.0736512 10.4928 0.0577046C11.9716 0.0331846 13.4505 -0.00831073 14.9297 0.00146297C16.0607 0.00900759 17.1916 0.0295838 18.3225 0.0503315C19.1053 0.0647348 19.8882 0.0841108 20.6706 0.111203C21.6327 0.144639 22.594 0.190936 23.554 0.266896C24.1147 0.311306 24.676 0.343542 25.2301 0.445223C25.561 0.505923 25.8858 0.588399 26.2029 0.700711C27.1674 1.04228 27.8268 1.6894 28.1993 2.62664C28.4074 3.15065 28.5342 3.69506 28.6174 4.24959C28.7446 5.09768 28.8191 5.95107 28.8711 6.80653C28.9406 7.94731 29.0095 9.08861 28.9989 10.2318C28.9916 11.0259 28.9497 11.8192 28.9061 12.6125C28.876 13.1601 28.8433 13.7078 28.7914 14.2537C28.7082 15.1293 28.6255 16.0055 28.3752 16.8553C28.2684 17.2184 28.1289 17.5684 27.9373 17.8969C27.5075 18.6337 26.8527 19.0849 26.0464 19.3446C25.5483 19.5051 25.0353 19.5976 24.5155 19.6476C23.7018 19.726 22.886 19.7807 22.0694 19.8215C20.7949 19.8853 19.5194 19.9165 18.2437 19.941C17.4955 19.9552 16.7472 19.959 15.9991 19.9727C15.5004 19.9822 15.0017 19.9923 14.6109 20ZM11.6268 14.2661C14.1422 12.8345 16.6322 11.4175 19.1498 9.98453C16.6297 8.55036 14.137 7.13198 11.6268 5.7033C11.6268 8.56785 11.6268 11.4005 11.6268 14.2661Z" fill="#A6A6A6"/>
</svg>
