<svg width="75" height="81" viewBox="0 0 75 81" fill="none" xmlns="http://www.w3.org/2000/svg">
<path d="M24.954 5.0941C25.1433 7.60162 24.6187 10.6589 24.4058 13.732C24.2796 15.579 23.9601 17.4142 23.6761 19.2454C23.1713 22.4767 22.6467 25.704 22.0867 28.9274C21.5897 31.7948 21.0494 34.6504 20.5012 37.5099C20.2093 39.0287 19.8622 40.5355 19.5467 42.0464C19.4718 42.4103 19.6532 42.4973 19.9687 42.3865C20.1896 42.3074 20.4026 42.2085 20.6274 42.1334C23.1594 41.2791 25.6758 40.3694 28.2276 39.5903C31.5484 38.5778 34.9364 37.771 38.2297 36.6754C40.7105 35.8488 43.2031 35.1487 45.7588 34.6029C47.0959 34.3182 48.4013 33.9701 49.7897 34.0294C50.1998 34.0453 50.5311 34.1679 50.6416 34.508C50.7283 34.769 50.7086 35.2555 50.5469 35.3742C50.1998 35.6273 49.6556 35.9239 49.3124 35.8211C47.9793 35.4098 46.7764 36.0228 45.5616 36.2482C43.775 36.5844 42.0435 37.2291 40.2884 37.7433C37.9536 38.4275 35.6226 39.1196 33.2838 39.792C32.0178 40.1559 30.7281 40.4525 29.4699 40.8401C27.0759 41.5836 24.6858 42.347 22.3075 43.1499C21.2703 43.5019 19.9608 43.7115 19.3456 44.459C18.6948 45.25 18.6593 46.5908 18.4581 47.714C17.9139 50.7357 17.4445 53.7732 16.9002 56.7949C16.4072 59.516 15.859 62.2252 15.3305 64.9384C14.6324 68.5177 13.9343 72.101 13.2323 75.6804C12.9168 77.2901 12.6052 78.9038 12.2226 80.5016C12.1674 80.7231 11.7178 81.0039 11.4575 80.996C10.8698 80.9802 10.5858 80.4344 10.4636 79.9677C9.69842 76.9974 9.28035 73.9876 9.3119 70.9026C9.33557 68.5019 9.16992 66.0972 9.08315 63.6965C9.07526 63.4394 9.02399 63.1823 8.99243 62.9252C8.92933 63.1428 8.93327 63.4275 8.79129 63.5699C8.47182 63.8903 8.70057 64.8355 8.00642 64.5429C7.76978 64.44 7.84077 63.388 7.91965 62.7908C8.31406 59.8601 8.9806 56.957 8.39294 53.9709C8.18391 52.907 8.37716 51.6533 7.20973 51.0561C5.67155 50.2729 4.31874 51.2261 2.90677 51.6651C2.03908 51.9341 1.21872 52.5985 0.244538 52.1951C0.0788884 52.1279 -0.0788735 51.5228 0.0355038 51.3606C0.741488 50.3481 1.78666 49.743 2.88705 49.2486C4.79597 48.3903 6.71278 47.5558 8.63747 46.7332C9.48938 46.3693 10.5898 46.2783 11.1695 45.6692C12.2068 44.5855 12.3173 42.9719 12.7551 41.5599C13.465 39.2581 14.1473 36.9483 14.7862 34.6227C15.1925 33.1396 15.4883 31.6287 15.8511 30.1337C16.5295 27.3335 17.2118 24.5373 17.9099 21.741C18.4384 19.6211 18.959 17.4972 19.5388 15.3931C20.2645 12.7551 21.0809 10.1447 21.7988 7.50669C22.2918 5.69527 22.6704 3.8522 23.1318 2.02891C23.2935 1.38819 23.5065 0.755377 23.7866 0.15816C23.8536 0.0157771 24.3072 -0.0514592 24.5241 0.0197322C24.7095 0.0830134 24.9264 0.395465 24.9303 0.601129C24.9737 1.91026 24.954 3.20753 24.954 5.0941ZM10.1047 58.0328C10.1993 58.7685 10.365 59.5595 10.3886 60.3544C10.5069 64.5271 10.5543 68.7036 10.7002 72.8762C10.7515 74.3633 11.0197 75.8465 11.1972 77.3296C11.205 77.389 11.2563 77.4443 11.2879 77.4997C11.3273 77.4364 11.3865 77.3811 11.4062 77.3099C11.6862 76.2459 12.0215 75.1939 12.2266 74.1142C12.7669 71.3021 13.2481 68.4742 13.7647 65.6582C14.1236 63.7044 14.5023 61.7545 14.8809 59.8047C15.5632 56.3124 16.2495 52.82 16.9357 49.3277C17.1724 48.1253 17.413 46.923 17.6299 45.7167C17.6772 45.4636 17.6338 45.1946 17.622 44.9336C17.622 44.9217 17.5234 44.8901 17.4879 44.9059C15.3305 45.8868 12.475 45.8551 11.9229 49.0943C11.422 52.0646 10.3531 54.9281 10.1047 58.0328ZM23.6761 7.45528C23.6722 7.43946 23.613 7.24961 23.5578 7.06373C23.5065 7.09932 23.4237 7.12701 23.4119 7.17051C23.0608 8.32935 22.6941 9.48423 22.3746 10.651C21.8145 12.6918 21.2781 14.7366 20.7378 16.7814C20.0476 19.3838 19.3534 21.9823 18.683 24.5887C18.3911 25.7317 18.186 26.8984 17.8902 28.0415C17.1448 30.9326 16.3915 33.8198 15.6105 36.6991C14.9164 39.262 14.1749 41.813 13.4532 44.368C13.4177 44.4985 13.3624 44.6251 13.3151 44.7556C13.532 44.7477 13.7647 44.7912 13.9619 44.724C14.5654 44.5183 15.2043 44.3443 15.7407 44.016C16.6557 43.4544 18.1268 43.7273 18.257 41.9515C18.399 40.0372 18.9472 38.1506 19.3101 36.2522C19.9963 32.6847 20.7063 29.1172 21.3491 25.5419C21.7356 23.4061 22.063 21.2585 22.3312 19.103C22.8045 15.2824 23.2186 11.4578 23.6761 7.45528ZM10.9132 47.7733C10.8698 47.6745 11.0946 47.2394 10.5661 47.449C9.49333 47.8762 8.42449 48.3033 7.35171 48.7305C7.13084 48.8175 6.8942 48.8768 6.697 48.9994C6.32626 49.2249 5.89636 49.4938 6.79954 49.474C8.06164 49.4503 8.69269 50.2374 9.09892 51.3052C9.19358 51.5544 9.26457 51.8115 9.35923 52.0567C9.47361 52.3573 9.78124 52.4364 9.85618 52.1516C10.2427 50.7317 10.5543 49.296 10.9132 47.7733Z" fill="#A6A6A6"/>
<path d="M65.8538 55.7587C63.3611 55.5451 60.5411 55.8853 57.7645 56.3243C53.9625 56.9254 50.1919 57.756 46.449 58.6578C43.065 59.4765 39.7205 60.4652 36.3917 61.4936C33.9149 62.2608 31.4419 63.0875 29.0597 64.1118C27.0838 64.9582 25.2498 66.1329 23.3448 67.1533C22.9741 67.351 22.556 67.268 22.3982 66.912C22.1143 66.2673 22.4219 65.7374 23.0135 65.4605C25.3247 64.3808 27.2534 62.7394 29.2767 61.2286C32.1006 59.1245 35.0074 57.1311 37.8037 54.9914C39.9138 53.3738 41.9055 51.5979 43.9525 49.8973C46.5043 47.7734 49.0758 45.6693 51.6039 43.5217C52.302 42.9284 52.9054 42.2205 53.5207 41.5323C53.6311 41.4097 53.5878 41.1328 53.5799 40.9271C53.5799 40.8916 53.4024 40.8401 53.2999 40.8322C49.553 40.5554 46.0783 41.56 42.8166 43.2725C41.6846 43.8697 40.4935 44.5619 39.7757 45.7642C39.7047 45.8829 39.3024 45.9145 39.1368 45.8314C38.9593 45.7405 38.7305 45.3806 38.7818 45.2777C39.0145 44.8387 39.2827 44.3839 39.6495 44.0517C41.5624 42.3233 43.9446 41.4532 46.2361 40.4011C47.3601 39.883 53.7889 39.175 54.4042 39.8553C55.4336 40.9865 54.7946 42.0504 53.9703 42.964C51.525 45.6732 48.5946 47.8446 45.8417 50.2018C43.1518 52.5076 40.3989 54.7422 37.6144 56.9294C35.6108 58.4996 33.4889 59.9115 31.4617 61.454C31.083 61.7427 31.5642 61.6794 31.6786 61.6518C31.9231 61.6003 32.1558 61.4936 32.3964 61.4145C34.1633 60.841 35.9263 60.2438 37.7011 59.7059C40.32 58.9109 42.9388 58.1238 45.5735 57.4001C47.4587 56.8819 49.3558 56.3955 51.2726 56.0237C54.6566 55.3671 58.0406 54.5168 61.4601 54.2834C65.1004 54.0382 68.8394 53.5518 72.4245 54.7304C73.3198 55.023 74.0968 55.8576 74.7712 56.5893C75.0907 56.9333 75.0868 57.6809 74.5464 58.0289C74.2033 58.2504 73.9903 58.0447 73.7064 57.6255C72.8308 56.3282 71.3596 55.9367 69.9043 55.7824C68.6895 55.6559 67.4393 55.7587 65.8538 55.7587Z" fill="#A6A6A6"/>
<path d="M31.8916 53.6665C29.5567 53.6704 28.8113 52.385 29.9472 49.4503C30.7636 47.3423 31.8876 45.3331 33.8912 44.0556C34.822 43.4623 36.1314 43.0273 36.7664 43.9251C37.4566 44.9059 36.4982 46.0055 35.8041 46.8914C34.4079 48.6712 33.0827 50.5182 31.0318 51.6415C30.9489 51.6889 30.9529 51.9935 31.0042 52.1477C31.0318 52.2387 31.229 52.3059 31.3631 52.3257C33.4455 52.6421 34.893 51.3962 36.4154 50.2928C36.9715 49.8894 37.571 49.3871 38.3243 49.5255C38.8804 49.6283 38.5886 50.6448 37.8707 51.0324C37.6538 51.1471 37.4053 51.2064 37.2003 51.333C35.5911 52.3138 34.2186 53.8128 31.8916 53.6665ZM31.0949 50.2334C31.4025 49.9526 31.4419 49.921 31.4774 49.8814C32.6962 48.513 33.9228 47.1564 35.1217 45.7682C35.3347 45.5229 35.4097 45.1591 35.5477 44.8466C35.3939 44.8822 35.2282 44.8901 35.0902 44.9574C33.4968 45.7049 32.6133 47.1287 31.7654 48.5644C31.5129 48.9757 31.3907 49.4701 31.0949 50.2334Z" fill="#A6A6A6"/>
<path d="M22.0393 52.9584C22.3115 50.1701 23.2423 47.6547 25.7231 46.0014C26.1293 45.7325 26.8905 45.7958 27.4032 45.9658C27.703 46.0647 27.9594 46.654 28.0185 47.0574C28.1723 48.0739 28.8507 49.1141 28.054 50.1345C27.912 50.3204 27.6517 50.4113 27.4466 50.5458C27.3125 50.2967 27.0917 50.0554 27.0641 49.7944C27.0049 49.2288 27.0995 48.6434 27.0246 48.0818C26.9733 47.6784 26.7525 47.2947 26.6065 46.8992C26.1451 47.2236 25.3997 47.4569 25.2656 47.8841C24.6503 49.8616 24.2441 51.9064 23.6603 53.8958C23.5381 54.3071 23.4355 55.1851 22.7059 54.9795C21.6568 54.6907 22.3154 53.6941 22.0393 52.9584Z" fill="#A6A6A6"/>
</svg>
