<svg width="69" height="69" viewBox="0 0 69 69" fill="none" xmlns="http://www.w3.org/2000/svg">
<path d="M36.56 18.22C36.24 18.22 35.93 18.18 35.63 18.13V18.99C37.51 19.17 39.27 19.71 40.89 20.52L44.34 15.01C43.51 14.56 42.64 14.17 41.74 13.83C41.32 16.32 39.16 18.22 36.56 18.22Z" fill="#3D3D4D"/>
<path d="M35.63 23.5C35.63 24.33 34.96 25 34.13 25C33.3 25 32.63 24.33 32.63 23.5V22.02C27.1 22.7 22.71 27.09 22.03 32.62H23.51C24.34 32.62 25.01 33.29 25.01 34.12C25.01 34.95 24.34 35.62 23.51 35.62H22.03C22.71 41.15 27.1 45.54 32.63 46.22V44.74C32.63 43.91 33.3 43.24 34.13 43.24C34.96 43.24 35.63 43.91 35.63 44.74V46.22C41.16 45.54 45.55 41.15 46.23 35.62H44.75C43.92 35.62 43.25 34.95 43.25 34.12C43.25 33.29 43.92 32.62 44.75 32.62H46.23C46.16 32.04 46.04 31.48 45.89 30.92L34.69 35.5C34.51 35.58 34.31 35.61 34.12 35.61C33.69 35.61 33.26 35.42 32.97 35.08C32.55 34.58 32.5 33.87 32.85 33.32L39.28 23.07C38.14 22.54 36.92 22.17 35.62 22.01V23.5H35.63Z" fill="#3D3D4D"/>
<path d="M41.19 10.48C42.85 10.98 44.44 11.64 45.94 12.46L49.37 6.99C45.27 4.68 40.61 3.27 35.63 3.03V7.77C35.93 7.72 36.24 7.68 36.56 7.68C38.57 7.68 40.3 8.82 41.19 10.48Z" fill="#3D3D4D"/>
<path d="M10.53 41.29C10.21 41.35 9.88001 41.39 9.54001 41.39C6.63001 41.39 4.27001 39.02 4.27001 36.12C4.27001 35.95 4.30001 35.78 4.32001 35.62H3.04001C3.80001 51.59 16.65 64.44 32.62 65.2V58.74C22.18 58.11 13.47 50.95 10.53 41.29Z" fill="#3D3D4D"/>
<path d="M55.74 32.62C55.61 30.78 55.26 29 54.7 27.32L48.69 29.78C48.96 30.7 49.16 31.64 49.25 32.62H55.74Z" fill="#3D3D4D"/>
<path d="M32.63 18.99V16.43C31.8 15.5 31.29 14.29 31.29 12.95C31.29 12.84 31.32 12.74 31.32 12.64C21.44 13.93 13.63 21.88 12.58 31.83C12.9 32.06 13.19 32.33 13.45 32.62H19C19.71 25.43 25.44 19.7 32.63 18.99Z" fill="#3D3D4D"/>
<path d="M51.8 51.3C52.11 51.97 52.3 52.72 52.3 53.51C52.3 56.42 49.93 58.78 47.03 58.78C45.5 58.78 44.12 58.11 43.16 57.06C40.8 57.99 38.27 58.57 35.63 58.73V65.19C51.6 64.43 64.45 51.58 65.21 35.61H58.75C58.38 41.7 55.8 47.19 51.8 51.3Z" fill="#3D3D4D"/>
<path d="M65.21 32.62C65.06 29.52 64.45 26.53 63.46 23.73L57.48 26.18C58.18 28.22 58.61 30.38 58.75 32.62H65.21V32.62Z" fill="#3D3D4D"/>
<path d="M19 35.62H14.76C14.78 35.79 14.81 35.95 14.81 36.12C14.81 37.59 14.21 38.91 13.24 39.87C15.64 48.57 23.34 55.09 32.63 55.73V49.25C25.44 48.54 19.71 42.8 19 35.62Z" fill="#3D3D4D"/>
<path d="M47.03 48.24C48.05 48.24 49 48.54 49.81 49.05C53.19 45.5 55.39 40.81 55.74 35.62H49.26C48.55 42.81 42.82 48.54 35.63 49.25V55.73C37.8 55.58 39.89 55.11 41.84 54.36C41.79 54.08 41.75 53.8 41.75 53.51C41.76 50.61 44.12 48.24 47.03 48.24Z" fill="#3D3D4D"/>
<path d="M9.54001 30.85C9.59001 30.85 9.63001 30.86 9.68001 30.86C11.21 19.29 20.8 10.22 32.6 9.5C32.61 9.49 32.62 9.48 32.62 9.47V3.04C16.65 3.8 3.80001 16.65 3.04001 32.62H5.62001C6.59001 31.54 7.98001 30.85 9.54001 30.85Z" fill="#3D3D4D"/>
<path d="M36.56 10.68C35.31 10.68 34.29 11.7 34.29 12.95C34.29 14.2 35.31 15.22 36.56 15.22C37.81 15.22 38.83 14.2 38.83 12.95C38.83 11.7 37.81 10.68 36.56 10.68Z" fill="#EC1E61"/>
<path d="M7.26001 36.12C7.26001 37.37 8.28001 38.39 9.53001 38.39C10.78 38.39 11.8 37.37 11.8 36.12C11.8 34.87 10.78 33.85 9.53001 33.85C8.28001 33.85 7.26001 34.87 7.26001 36.12Z" fill="#EC1E61"/>
<path d="M47.03 55.78C48.2837 55.78 49.3 54.7637 49.3 53.51C49.3 52.2563 48.2837 51.24 47.03 51.24C45.7763 51.24 44.76 52.2563 44.76 53.51C44.76 54.7637 45.7763 55.78 47.03 55.78Z" fill="#EC1E61"/>
<path d="M37.88 30.96L62.31 20.96C61.03 18.37 57.71 12.61 51.92 8.57L37.88 30.96Z" fill="#A3A3A3"/>
<path d="M65.75 21.34C65.74 21.3 65.73 21.25 65.71 21.21C65.68 21.12 65.46 20.59 65.07 19.79C63.12 15.6 60.35 11.86 56.96 8.8C55.57 7.52 54 6.29 52.23 5.2C52.18 5.17 52.13 5.15 52.08 5.13C46.86 1.88 40.7 0 34.12 0C15.31 0 0 15.31 0 34.12C0 52.93 15.31 68.24 34.12 68.24C52.93 68.24 68.24 52.93 68.24 34.12C68.25 29.6 67.36 25.29 65.75 21.34ZM62.31 20.96L37.88 30.96L51.92 8.57C57.7 12.6 61.02 18.37 62.31 20.96ZM47.03 48.24C44.12 48.24 41.76 50.61 41.76 53.51C41.76 53.8 41.8 54.08 41.85 54.36C39.9 55.11 37.81 55.58 35.64 55.73V49.25C42.83 48.54 48.56 42.81 49.27 35.62H55.75C55.39 40.81 53.2 45.5 49.82 49.05C49 48.55 48.05 48.24 47.03 48.24ZM49.3 53.51C49.3 54.76 48.28 55.78 47.03 55.78C45.78 55.78 44.76 54.76 44.76 53.51C44.76 52.26 45.78 51.24 47.03 51.24C48.28 51.24 49.3 52.26 49.3 53.51ZM49.25 32.62C49.15 31.64 48.96 30.69 48.69 29.78L54.7 27.32C55.26 29.01 55.62 30.78 55.74 32.62H49.25ZM40.88 20.52C39.27 19.71 37.5 19.18 35.62 18.99V18.13C35.92 18.18 36.23 18.22 36.55 18.22C39.15 18.22 41.31 16.32 41.73 13.83C42.63 14.17 43.49 14.56 44.33 15.01L40.88 20.52ZM35.63 3.03C40.6 3.27 45.27 4.68 49.37 6.99L45.94 12.46C44.45 11.64 42.86 10.98 41.19 10.48C40.3 8.82 38.57 7.67 36.56 7.67C36.24 7.67 35.93 7.71 35.63 7.76V3.03ZM36.56 10.68C37.81 10.68 38.83 11.7 38.83 12.95C38.83 14.2 37.81 15.22 36.56 15.22C35.31 15.22 34.29 14.2 34.29 12.95C34.29 11.7 35.3 10.68 36.56 10.68ZM32.63 3.03V9.46C32.62 9.47 32.61 9.48 32.61 9.49C20.8 10.21 11.22 19.28 9.69 30.85C9.64 30.85 9.6 30.84 9.55 30.84C7.99 30.84 6.61 31.53 5.64 32.61H3.04C3.81 16.65 16.66 3.8 32.63 3.03ZM32.63 16.43V18.99C25.44 19.7 19.71 25.43 19 32.62H13.45C13.19 32.33 12.9 32.06 12.58 31.83C13.63 21.88 21.44 13.92 31.32 12.64C31.31 12.75 31.29 12.85 31.29 12.95C31.28 14.29 31.8 15.5 32.63 16.43ZM11.81 36.12C11.81 37.37 10.79 38.39 9.54 38.39C8.29 38.39 7.27 37.37 7.27 36.12C7.27 34.87 8.29 33.85 9.54 33.85C10.79 33.85 11.81 34.87 11.81 36.12ZM32.63 65.2C16.66 64.44 3.81 51.59 3.05 35.62H4.32C4.3 35.79 4.27 35.95 4.27 36.12C4.27 39.03 6.64 41.39 9.54 41.39C9.88 41.39 10.21 41.35 10.53 41.29C13.47 50.94 22.18 58.1 32.63 58.73V65.2ZM32.63 55.73C23.34 55.09 15.64 48.57 13.24 39.87C14.21 38.91 14.81 37.59 14.81 36.12C14.81 35.95 14.78 35.78 14.76 35.62H19C19.71 42.81 25.44 48.54 32.63 49.25V55.73ZM34.13 43.24C33.3 43.24 32.63 43.91 32.63 44.74V46.22C27.1 45.54 22.71 41.15 22.03 35.62H23.51C24.34 35.62 25.01 34.95 25.01 34.12C25.01 33.29 24.34 32.62 23.51 32.62H22.03C22.71 27.09 27.1 22.7 32.63 22.02V23.5C32.63 24.33 33.3 25 34.13 25C34.96 25 35.63 24.33 35.63 23.5V22.02C36.92 22.18 38.15 22.54 39.29 23.08L32.86 33.33C32.51 33.88 32.56 34.59 32.98 35.09C33.27 35.44 33.69 35.62 34.13 35.62C34.32 35.62 34.51 35.58 34.7 35.51L45.9 30.93C46.05 31.48 46.17 32.05 46.24 32.63H44.76C43.93 32.63 43.26 33.3 43.26 34.13C43.26 34.96 43.93 35.63 44.76 35.63H46.24C45.56 41.16 41.17 45.55 35.64 46.23V44.75C35.63 43.91 34.95 43.24 34.13 43.24ZM35.63 65.2V58.74C38.27 58.58 40.8 58 43.16 57.07C44.12 58.12 45.5 58.79 47.03 58.79C49.94 58.79 52.3 56.42 52.3 53.52C52.3 52.73 52.11 51.98 51.8 51.31C55.8 47.2 58.38 41.71 58.75 35.62H65.21C64.45 51.58 51.59 64.44 35.63 65.2ZM58.75 32.62C58.61 30.38 58.18 28.22 57.48 26.18L63.46 23.73C64.46 26.53 65.06 29.52 65.21 32.62H58.75V32.62Z" fill="black"/>
</svg>
