<svg width="74" height="72" viewBox="0 0 74 72" fill="none" xmlns="http://www.w3.org/2000/svg">
<path d="M42.95 45.34H40.52C39.83 45.34 39.23 44.87 39.06 44.2C38.68 42.69 38.08 41.24 37.28 39.9C36.93 39.31 37.02 38.55 37.51 38.07L39.23 36.35C39.49 36.09 39.64 35.74 39.64 35.37C39.64 35 39.49 34.65 39.23 34.39L37.34 32.5C36.8 31.96 35.91 31.96 35.37 32.5L33.65 34.22C33.16 34.71 32.41 34.8 31.82 34.45C30.48 33.65 29.03 33.04 27.52 32.67C26.85 32.5 26.38 31.9 26.38 31.21V28.78C26.38 28.01 25.76 27.39 24.99 27.39H22.32C21.55 27.39 20.93 28.01 20.93 28.78V31.21C20.93 31.9 20.46 32.5 19.79 32.67C18.28 33.05 16.83 33.65 15.49 34.45C14.9 34.8 14.14 34.71 13.66 34.22L11.94 32.5C11.4 31.96 10.51 31.96 9.97 32.5L8.08 34.39C7.82 34.65 7.67 35 7.67 35.37C7.67 35.74 7.82 36.09 8.08 36.35L9.8 38.07C10.29 38.56 10.38 39.31 10.03 39.9C9.23 41.24 8.63 42.69 8.25 44.2C8.08 44.87 7.48 45.34 6.79 45.34H4.36C3.59 45.34 2.97 45.96 2.97 46.73V49.4C2.97 50.17 3.59 50.79 4.36 50.79H6.79C7.48 50.79 8.08 51.26 8.25 51.93C8.63 53.44 9.23 54.89 10.03 56.23C10.38 56.82 10.29 57.57 9.8 58.06L8.08 59.78C7.82 60.04 7.67 60.39 7.67 60.76C7.67 61.13 7.82 61.48 8.08 61.74L9.97 63.63C10.51 64.17 11.4 64.17 11.94 63.63L13.66 61.91C13.95 61.62 14.33 61.47 14.72 61.47C14.99 61.47 15.25 61.54 15.49 61.68C16.83 62.48 18.28 63.08 19.79 63.46C20.46 63.63 20.93 64.23 20.93 64.92V67.35C20.93 68.12 21.55 68.74 22.32 68.74H24.99C25.76 68.74 26.38 68.12 26.38 67.35V64.92C26.38 64.23 26.85 63.63 27.52 63.46C29.04 63.08 30.48 62.48 31.82 61.68C32.41 61.33 33.17 61.42 33.65 61.91L35.37 63.63C35.91 64.17 36.8 64.17 37.34 63.63L39.23 61.74C39.49 61.48 39.64 61.13 39.64 60.76C39.64 60.39 39.49 60.04 39.23 59.78L37.51 58.06C37.02 57.57 36.93 56.82 37.28 56.23C38.09 54.89 38.68 53.44 39.06 51.93C39.23 51.26 39.83 50.79 40.52 50.79H42.95C43.72 50.79 44.34 50.17 44.34 49.4V46.73C44.35 45.97 43.72 45.34 42.95 45.34ZM23.66 56.57C18.97 56.57 15.16 52.76 15.16 48.07C15.16 43.38 18.97 39.57 23.66 39.57C28.35 39.57 32.16 43.38 32.16 48.07C32.16 52.76 28.35 56.57 23.66 56.57Z" fill="#3D3D4D"/>
<path d="M42.95 42.34H41.66C41.34 41.32 40.93 40.34 40.44 39.39L41.36 38.47C42.19 37.64 42.65 36.54 42.65 35.37C42.65 34.2 42.19 33.09 41.36 32.26L39.47 30.37C37.76 28.66 34.97 28.66 33.26 30.37L32.35 31.29C31.4 30.8 30.41 30.39 29.4 30.07V28.78C29.4 26.36 27.43 24.39 25.01 24.39H22.34C19.92 24.39 17.95 26.36 17.95 28.78V30.07C16.93 30.39 15.95 30.8 15 31.29L14.08 30.37C12.37 28.66 9.58 28.66 7.87 30.37L5.98 32.26C5.15 33.09 4.69 34.19 4.69 35.37C4.69 36.54 5.15 37.65 5.98 38.47L6.9 39.39C6.41 40.34 6 41.33 5.68 42.34H4.39C1.97 42.34 0 44.31 0 46.73V49.4C0 51.82 1.97 53.79 4.39 53.79H5.68C6 54.81 6.41 55.79 6.9 56.74L5.98 57.66C5.15 58.49 4.69 59.59 4.69 60.77C4.69 61.94 5.15 63.05 5.98 63.88L7.87 65.77C9.58 67.48 12.37 67.48 14.08 65.77L14.99 64.85C15.94 65.34 16.92 65.75 17.94 66.07V67.36C17.94 69.78 19.91 71.75 22.33 71.75H25C27.42 71.75 29.39 69.78 29.39 67.36V66.07C30.41 65.75 31.39 65.34 32.34 64.85L33.26 65.77C34.97 67.48 37.76 67.48 39.47 65.77L41.36 63.88C42.19 63.05 42.65 61.95 42.65 60.77C42.65 59.6 42.19 58.49 41.36 57.66L40.44 56.74C40.93 55.79 41.34 54.8 41.66 53.79H42.95C45.37 53.79 47.34 51.82 47.34 49.4V46.73C47.35 44.31 45.38 42.34 42.95 42.34ZM44.35 49.4C44.35 50.17 43.73 50.79 42.96 50.79H40.53C39.84 50.79 39.24 51.26 39.07 51.93C38.69 53.44 38.09 54.89 37.29 56.23C36.94 56.82 37.03 57.57 37.52 58.06L39.24 59.78C39.5 60.04 39.65 60.39 39.65 60.76C39.65 61.13 39.5 61.48 39.24 61.74L37.35 63.63C36.81 64.17 35.92 64.17 35.38 63.63L33.66 61.91C33.17 61.42 32.42 61.33 31.83 61.68C30.49 62.48 29.04 63.08 27.53 63.46C26.86 63.63 26.39 64.23 26.39 64.92V67.35C26.39 68.12 25.77 68.74 25 68.74H22.33C21.56 68.74 20.94 68.12 20.94 67.35V64.92C20.94 64.23 20.47 63.63 19.8 63.46C18.28 63.08 16.84 62.48 15.5 61.68C15.26 61.54 14.99 61.47 14.73 61.47C14.34 61.47 13.96 61.62 13.67 61.91L11.95 63.63C11.41 64.17 10.52 64.17 9.98 63.63L8.09 61.74C7.83 61.48 7.68 61.13 7.68 60.76C7.68 60.39 7.83 60.04 8.09 59.78L9.81 58.06C10.3 57.57 10.39 56.82 10.04 56.23C9.24 54.89 8.64 53.44 8.26 51.93C8.09 51.26 7.49 50.79 6.8 50.79H4.37C3.6 50.79 2.98 50.17 2.98 49.4V46.73C2.98 45.96 3.6 45.34 4.37 45.34H6.8C7.49 45.34 8.09 44.87 8.26 44.2C8.64 42.69 9.24 41.24 10.04 39.9C10.39 39.31 10.3 38.55 9.81 38.07L8.09 36.35C7.83 36.09 7.68 35.74 7.68 35.37C7.68 35 7.83 34.65 8.09 34.39L9.98 32.5C10.52 31.96 11.41 31.96 11.95 32.5L13.67 34.22C14.16 34.71 14.91 34.8 15.5 34.45C16.84 33.65 18.29 33.04 19.8 32.67C20.47 32.5 20.94 31.9 20.94 31.21V28.78C20.94 28.01 21.56 27.39 22.33 27.39H25C25.77 27.39 26.39 28.01 26.39 28.78V31.21C26.39 31.9 26.86 32.5 27.53 32.67C29.04 33.05 30.49 33.65 31.83 34.45C32.42 34.8 33.18 34.71 33.66 34.22L35.38 32.5C35.92 31.96 36.81 31.96 37.35 32.5L39.24 34.39C39.5 34.65 39.65 35 39.65 35.37C39.65 35.74 39.5 36.09 39.24 36.35L37.52 38.07C37.03 38.56 36.94 39.31 37.29 39.9C38.1 41.24 38.69 42.69 39.07 44.2C39.24 44.87 39.84 45.34 40.53 45.34H42.96C43.73 45.34 44.35 45.96 44.35 46.73V49.4Z" fill="black"/>
<path d="M23.66 39.57C18.97 39.57 15.16 43.38 15.16 48.07C15.16 52.76 18.97 56.57 23.66 56.57C28.35 56.57 32.16 52.76 32.16 48.07C32.16 43.38 28.35 39.57 23.66 39.57ZM23.66 53.57C20.63 53.57 18.16 51.1 18.16 48.07C18.16 45.04 20.63 42.57 23.66 42.57C26.69 42.57 29.16 45.04 29.16 48.07C29.16 51.1 26.7 53.57 23.66 53.57Z" fill="black"/>
<path d="M68.17 24.16H65.31C64.62 24.16 64.02 23.69 63.85 23.02C63.4 21.21 62.68 19.48 61.72 17.88C61.37 17.29 61.46 16.53 61.95 16.05L63.97 14.03C64.71 13.29 64.71 12.07 63.97 11.33L61.75 9.11C61.01 8.37 59.79 8.37 59.05 9.11L57.03 11.13C56.54 11.62 55.79 11.71 55.2 11.36C53.6 10.4 51.87 9.68 50.06 9.23C49.39 9.06 48.92 8.46 48.92 7.77V4.91C48.92 3.86 48.06 3 47.01 3H43.86C42.81 3 41.95 3.86 41.95 4.91V7.77C41.95 8.46 41.48 9.06 40.81 9.23C39 9.68 37.27 10.4 35.67 11.36C35.08 11.71 34.32 11.62 33.84 11.13L31.82 9.11C31.08 8.37 29.86 8.37 29.12 9.11L26.9 11.33C26.56 11.67 26.37 12.11 26.35 12.57H27.1C30.37 12.57 33.03 15.23 33.03 18.5V21.07C34.4 21.48 35.76 22 37.08 22.63C38.82 19.71 41.95 17.89 45.44 17.89C50.82 17.89 55.19 22.27 55.19 27.64C55.19 31.13 53.37 34.26 50.45 36C51.08 37.32 51.6 38.68 52.01 40.05H54.58C57.85 40.05 60.51 42.71 60.51 45.98V46.73C60.97 46.71 61.41 46.52 61.75 46.18L63.98 43.96C64.72 43.22 64.72 42 63.98 41.26L61.96 39.24C61.47 38.75 61.38 38 61.73 37.41C62.69 35.81 63.41 34.08 63.86 32.27C64.03 31.6 64.63 31.13 65.32 31.13H68.18C69.23 31.13 70.09 30.27 70.09 29.22V26.07C70.08 25.02 69.22 24.16 68.17 24.16Z" fill="#EC1E61"/>
<path d="M68.17 21.16H66.45C66.05 19.85 65.52 18.58 64.88 17.36L66.1 16.14C67.03 15.21 67.54 13.98 67.54 12.67C67.54 11.36 67.03 10.13 66.1 9.2L63.88 6.98C62.95 6.05 61.72 5.54 60.41 5.54C59.1 5.54 57.87 6.05 56.94 6.98L55.72 8.2C54.51 7.56 53.24 7.03 51.92 6.63V4.91C51.92 2.2 49.72 0 47.01 0H43.86C41.15 0 38.95 2.2 38.95 4.91V6.63C37.64 7.03 36.37 7.56 35.15 8.2L33.93 6.98C32.02 5.07 28.9 5.07 26.99 6.98L24.77 9.2C23.34 10.63 22.94 12.83 23.77 14.68C24.01 15.22 24.55 15.57 25.14 15.57H27.09C28.7 15.57 30.02 16.88 30.02 18.5V22.22C30.02 22.91 30.49 23.51 31.16 23.68C33.16 24.18 35.14 24.96 37.04 25.99C37.42 26.2 37.87 26.23 38.27 26.08C38.67 25.93 39 25.62 39.15 25.21C40.17 22.59 42.64 20.9 45.44 20.9C49.16 20.9 52.19 23.93 52.19 27.65C52.19 30.45 50.5 32.92 47.88 33.94C47.48 34.1 47.16 34.42 47.02 34.82C46.87 35.23 46.91 35.67 47.11 36.05C48.14 37.94 48.92 39.92 49.42 41.93C49.59 42.6 50.19 43.07 50.88 43.07H54.6C56.21 43.07 57.53 44.38 57.53 46V47.95C57.53 48.54 57.88 49.08 58.42 49.32C59.06 49.61 59.75 49.75 60.42 49.75C61.7 49.75 62.96 49.25 63.89 48.32L66.11 46.1C68.02 44.19 68.02 41.07 66.11 39.16L64.89 37.94C65.53 36.73 66.06 35.46 66.46 34.14H68.18C70.89 34.14 73.09 31.94 73.09 29.23V26.08C73.08 23.36 70.87 21.16 68.17 21.16ZM70.08 29.22C70.08 30.27 69.22 31.13 68.17 31.13H65.31C64.62 31.13 64.02 31.6 63.85 32.27C63.4 34.08 62.68 35.81 61.72 37.41C61.37 38 61.46 38.76 61.95 39.24L63.97 41.26C64.71 42 64.71 43.22 63.97 43.96L61.74 46.18C61.4 46.52 60.96 46.71 60.5 46.73V45.98C60.5 42.71 57.84 40.05 54.57 40.05H52C51.59 38.68 51.07 37.32 50.44 36C53.36 34.26 55.18 31.13 55.18 27.64C55.18 22.26 50.8 17.89 45.43 17.89C41.94 17.89 38.81 19.71 37.07 22.63C35.75 22 34.39 21.48 33.02 21.07V18.5C33.02 15.23 30.36 12.57 27.09 12.57H26.34C26.36 12.11 26.55 11.67 26.89 11.33L29.11 9.11C29.85 8.37 31.07 8.37 31.81 9.11L33.83 11.13C34.32 11.62 35.07 11.71 35.66 11.36C37.26 10.4 38.99 9.68 40.8 9.23C41.47 9.06 41.94 8.46 41.94 7.77V4.91C41.94 3.86 42.8 3 43.85 3H47C48.05 3 48.91 3.86 48.91 4.91V7.77C48.91 8.46 49.38 9.06 50.05 9.23C51.86 9.68 53.59 10.4 55.19 11.36C55.78 11.71 56.54 11.62 57.02 11.13L59.04 9.11C59.78 8.37 61 8.37 61.74 9.11L63.96 11.33C64.7 12.07 64.7 13.29 63.96 14.03L61.94 16.05C61.45 16.54 61.36 17.29 61.71 17.88C62.67 19.48 63.39 21.21 63.84 23.02C64.01 23.69 64.61 24.16 65.3 24.16H68.16C69.21 24.16 70.07 25.02 70.07 26.07V29.22H70.08Z" fill="black"/>
</svg>
