<svg width="96" height="76" viewBox="0 0 96 76" fill="none" xmlns="http://www.w3.org/2000/svg">
<path d="M37.2401 47.3429C37.1301 47.3429 37.0201 47.333 36.9001 47.303L15.8401 42.4629V62.3229L46.1001 71.533V40.7429L38.1701 47.0229C37.9101 47.2329 37.5801 47.3429 37.2401 47.3429Z" fill="#3D3D4D"/>
<path d="M14.0101 28.353C13.8701 28.383 13.7401 28.4429 13.6101 28.5129C13.6301 28.5029 13.6501 28.5029 13.6701 28.4929C13.7801 28.4429 13.8901 28.383 14.0101 28.353Z" fill="black"/>
<path d="M79.3701 62.3229V43.2629L59.0401 47.9329C58.9301 47.9629 58.8201 47.973 58.7001 47.973C58.3701 47.973 58.0401 47.8629 57.7701 47.6529L49.1101 40.803V71.533L79.3701 62.3229Z" fill="#3D3D4D"/>
<path d="M81.1701 28.353C81.3201 28.383 81.4601 28.4429 81.6001 28.5129C81.4601 28.4329 81.3201 28.383 81.1701 28.353Z" fill="black"/>
<path d="M81.8101 28.6529C81.7701 28.6229 81.7301 28.6029 81.6901 28.5729C81.8001 28.6429 81.9001 28.7229 81.9801 28.8229C81.9201 28.7629 81.8701 28.7029 81.8101 28.6529Z" fill="black"/>
<path d="M82.1701 29.0929C82.1301 29.0129 82.0801 28.933 82.0201 28.863C82.0701 28.933 82.1101 29.003 82.1501 29.083C82.1601 29.093 82.1701 29.0929 82.1701 29.0929Z" fill="black"/>
<path d="M50.7301 25.563L50.2101 26.6829C49.7501 27.6629 48.5601 28.2529 47.0201 28.2529C45.4801 28.2529 44.2901 27.6629 43.8301 26.6829L43.0201 24.9529L21.3801 29.7929L48.3301 35.5429L73.4901 29.9329L50.7301 25.563Z" fill="#3D3D4D"/>
<path d="M46.4401 25.1829C46.7401 25.2729 47.3101 25.2729 47.6001 25.1829L52.8201 13.983L47.7401 3.08295C47.4501 2.99295 46.9001 2.99295 46.6001 3.08295L41.7501 15.163L46.4401 25.1829Z" fill="#EC1E61"/>
<path d="M36.8801 44.223L44.9001 37.8729L14.6201 31.4129L5.45007 36.9929L36.8801 44.223Z" fill="#A3A3A3"/>
<path d="M90.4901 37.6329L81.3201 32.0429L51.0401 38.503L59.0601 44.8529L90.4901 37.6329Z" fill="#A3A3A3"/>
<path d="M95.2001 36.9829L82.3701 29.1629C82.3101 29.1229 82.2401 29.1129 82.1701 29.0929C82.1601 29.0929 82.1601 29.093 82.1501 29.083C82.1101 29.013 82.0801 28.9329 82.0201 28.8629C82.0101 28.8429 81.9901 28.8329 81.9701 28.8129C81.8801 28.7129 81.7801 28.6329 81.6801 28.5629C81.6501 28.5429 81.6201 28.5229 81.5901 28.5029C81.4601 28.4329 81.3201 28.3729 81.1601 28.3429C81.1501 28.3429 81.1501 28.3329 81.1401 28.3329L52.0301 22.7429L55.7401 14.7929C55.9801 14.2629 55.9801 13.6629 55.7401 13.1429L50.3501 1.57294C49.8701 0.542941 48.6501 -0.0470583 47.0001 0.00294172C45.4701 0.0429417 44.3201 0.672948 43.9201 1.67295L38.8001 14.4429C38.5901 14.9529 38.6101 15.5129 38.8401 16.0029L41.7101 22.1529L14.0101 28.3429C14.0101 28.3429 14.0101 28.3429 14.0001 28.3429C13.8801 28.3729 13.7701 28.4229 13.6601 28.4829C13.6401 28.4929 13.6201 28.4929 13.6001 28.5029C13.5901 28.5129 13.5701 28.5129 13.5501 28.5229L0.720065 36.3429C0.200065 36.6629 -0.0799319 37.2629 0.0200681 37.8629C0.120068 38.4629 0.570067 38.943 1.16007 39.083L12.8201 41.7629V63.4229C12.8201 64.0829 13.2501 64.6629 13.8801 64.8529L47.1101 74.9629C47.2601 75.0129 47.4201 75.033 47.5801 75.033C47.7301 75.033 47.8701 75.0129 48.0201 74.9629L48.0501 74.9529L81.2801 64.8429C81.9101 64.6529 82.3401 64.0729 82.3401 63.4129V42.553L94.7301 39.7029C95.3201 39.5629 95.7801 39.0829 95.8701 38.4829C96.0001 37.9029 95.7201 37.3029 95.2001 36.9829ZM46.6001 3.07294C46.9001 2.99294 47.4501 2.99294 47.7401 3.07294L52.8201 13.9729L47.6001 25.1729C47.3001 25.2629 46.7401 25.2629 46.4401 25.1729L41.7501 15.1429L46.6001 3.07294ZM5.45008 36.9929L14.6201 31.4029L44.9101 37.8629L36.8801 44.2129L5.45008 36.9929ZM46.1101 71.533L15.8501 62.3229V42.4629L36.9101 47.303C37.0201 47.333 37.1301 47.3429 37.2501 47.3429C37.5801 47.3429 37.9101 47.2329 38.1801 47.0229L46.1101 40.7429V71.533ZM21.3801 29.7829L43.0201 24.9429L43.8301 26.6729C44.2901 27.6529 45.4801 28.2429 47.0201 28.2429C48.5601 28.2429 49.7501 27.6529 50.2101 26.6729L50.7301 25.5529L73.4801 29.9229L48.3201 35.5329L21.3801 29.7829ZM79.3701 62.3229L49.1101 71.533V40.803L57.7701 47.6529C58.0401 47.8629 58.3701 47.9729 58.7001 47.9729C58.8101 47.9729 58.9201 47.9629 59.0401 47.9329L79.3701 43.2629V62.3229ZM59.0601 44.8529L51.0301 38.5029L81.3201 32.0429L90.4901 37.6329L59.0601 44.8529Z" fill="black"/>
</svg>
