<svg width="33" height="78" viewBox="0 0 33 78" fill="none" xmlns="http://www.w3.org/2000/svg">
<path d="M23.81 19.61C23.81 18.9 23.23 18.31 22.51 18.31L10.18 18.3C9.83001 18.3 9.51001 18.43 9.26001 18.68C9.01001 18.93 8.88 19.25 8.88 19.6V20.24H15.79H23.8L23.81 19.61Z" fill="#3D3D4D"/>
<path d="M19.63 5.48C19.63 4.82 19.37 4.2 18.91 3.73C18.44 3.26 17.82 3 17.16 3H15.56C14.9 3 14.28 3.26 13.81 3.72C13.34 4.19 13.08 4.81 13.08 5.47L13.07 15.31H19.62V13.52L19.63 5.48Z" fill="#3D3D4D"/>
<path d="M24.76 10.53C25.97 10.53 26.96 9.54 26.96 8.33C26.96 7.74 26.73 7.19 26.32 6.77C25.9 6.35 25.35 6.13 24.77 6.13H22.64V10.53H24.76Z" fill="#EC1E61"/>
<path d="M22.92 67.04C22.92 67.04 22.91 67.04 22.92 67.04C21.88 67.04 20.91 66.64 20.18 65.9C19.51 65.23 19.13 64.36 19.07 63.42C15.02 63.23 11.78 60 11.78 56.03L11.79 41.82C11.79 37.74 15.22 34.43 19.44 34.43H19.52V27.77H11.81C10.75 27.77 9.73 27.32 9.02 26.53C8.31 25.74 7.96 24.68 8.07 23.62C8.08 23.49 8.12 23.37 8.15 23.24H8.11C4.74 23.24 3.03 25.88 3.03 31.09L3 67.9C3 71.69 4.55 74.2 5.59 74.2L26.93 74.21C27.96 74.21 29.52 71.7 29.52 67.91V63.44H26.76C26.69 64.37 26.32 65.23 25.65 65.9C24.92 66.64 23.95 67.04 22.92 67.04Z" fill="#3D3D4D"/>
<path d="M32.54 35.95L32.52 59.7L32.54 31.12C32.54 31.04 32.53 30.97 32.53 30.89V35.89C32.53 35.91 32.54 35.93 32.54 35.95Z" fill="black"/>
<path d="M28.44 54.76C27.35 54.76 26.33 54.33 25.56 53.56C24.79 52.79 24.37 51.77 24.37 50.68L24.38 41.35V40.26H23.6C21.79 40.26 20.28 39.07 19.74 37.44H19.44C16.88 37.44 14.79 39.41 14.79 41.84L14.78 56.05C14.78 58.4 16.73 60.3 19.18 60.43C19.62 58.77 21.12 57.53 22.91 57.53C24.72 57.53 26.22 58.78 26.65 60.45H29.51V54.6C29.18 54.7 28.82 54.76 28.44 54.76Z" fill="#A3A3A3"/>
<path d="M24.38 30.53C24.38 29.7 25.05 29.03 25.88 29.03C26.71 29.03 27.38 29.7 27.38 30.53L27.37 38.75L27.36 50.68C27.36 50.97 27.47 51.24 27.67 51.44C27.87 51.64 28.14 51.76 28.43 51.76C28.72 51.76 28.99 51.65 29.19 51.45C29.39 51.25 29.51 50.98 29.51 50.69L29.53 26.76C29.53 24.83 27.96 23.25 26.03 23.25L11.94 23.24C11.5 23.24 11.09 23.55 11.05 23.92C11.02 24.22 11.16 24.42 11.24 24.52C11.32 24.62 11.51 24.77 11.81 24.77L21.02 24.78C21.42 24.78 21.8 24.94 22.08 25.22C22.36 25.5 22.52 25.88 22.52 26.28L22.51 36.18C22.51 36.77 22.99 37.26 23.59 37.26H24.37L24.38 30.53Z" fill="#EC1E61"/>
<path d="M22.92 60.52C22.44 60.52 22.05 60.91 22.04 61.39V63.16C22.04 63.39 22.13 63.61 22.3 63.78C22.47 63.95 22.68 64.04 22.92 64.04C23.15 64.04 23.37 63.95 23.54 63.78C23.71 63.61 23.8 63.4 23.8 63.16V61.39C23.79 60.92 23.4 60.52 22.92 60.52Z" fill="#EC1E61"/>
<path d="M32.53 30.88V26.76C32.53 23.43 30.02 20.69 26.8 20.3V19.61C26.8 17.28 24.93 15.38 22.62 15.32V13.52H24.75C27.62 13.52 29.95 11.19 29.95 8.32C29.95 6.93 29.41 5.63 28.43 4.64C27.45 3.66 26.14 3.12 24.75 3.12H22.07C21.81 2.56 21.46 2.04 21.02 1.59C19.99 0.57 18.62 0 17.16 0H15.56C15.56 0 15.56 0 15.55 0C14.09 0 12.72 0.57 11.68 1.6C10.65 2.63 10.08 4.01 10.07 5.47L10.06 15.32C8.95 15.35 7.92 15.78 7.13 16.57C6.32 17.38 5.87 18.46 5.87 19.61V20.55C3.24 21.28 0.0100002 23.69 0.0100002 31.1L0 67.9C0 73.2 2.4 77.2 5.58 77.2L26.92 77.21C30.11 77.21 32.51 73.21 32.51 67.92V61.95V59.69L32.53 35.94C32.53 35.92 32.52 35.9 32.52 35.88L32.53 30.88ZM22.63 6.13H24.76C25.35 6.13 25.9 6.36 26.31 6.77C26.73 7.19 26.95 7.74 26.95 8.33C26.95 9.54 25.96 10.53 24.75 10.53H22.62L22.63 6.13ZM13.08 5.47C13.08 4.81 13.34 4.19 13.81 3.72C14.27 3.26 14.89 3 15.55 3H17.15C17.81 3 18.43 3.26 18.9 3.73C19.37 4.2 19.62 4.82 19.62 5.48L19.61 13.53V15.32H13.06L13.08 5.47ZM8.88 19.6C8.88 19.25 9.02 18.93 9.26 18.68C9.5 18.44 9.83 18.3 10.18 18.3L22.51 18.31C23.22 18.31 23.81 18.89 23.81 19.61V20.25H15.8H8.89L8.88 19.6ZM29.52 67.92C29.52 71.71 27.96 74.22 26.93 74.22L5.58 74.2C4.55 74.2 2.99 71.69 2.99 67.9L3.01 31.09C3.01 25.88 4.72 23.24 8.09 23.24H8.13C8.1 23.37 8.07 23.49 8.05 23.62C7.94 24.68 8.29 25.74 9 26.53C9.71 27.32 10.73 27.77 11.79 27.77H19.5V34.43H19.42C15.21 34.43 11.78 37.75 11.77 41.82L11.76 56.03C11.76 59.99 15 63.23 19.05 63.42C19.11 64.35 19.49 65.23 20.16 65.9C20.89 66.63 21.86 67.04 22.9 67.04C23.93 67.04 24.91 66.64 25.64 65.91C26.3 65.25 26.68 64.38 26.75 63.45H29.51L29.52 67.92ZM22.04 63.17V61.4C22.04 60.92 22.43 60.53 22.91 60.53C23.39 60.53 23.78 60.92 23.78 61.4V63.17C23.78 63.4 23.69 63.62 23.52 63.79C23.35 63.96 23.14 64.05 22.9 64.05C22.67 64.05 22.45 63.96 22.28 63.79C22.13 63.62 22.04 63.4 22.04 63.17ZM29.52 60.45H26.66C26.23 58.78 24.73 57.53 22.92 57.53C21.12 57.53 19.62 58.76 19.19 60.43C16.74 60.31 14.79 58.4 14.79 56.05L14.8 41.84C14.8 39.42 16.89 37.44 19.45 37.44H19.75C20.28 39.07 21.8 40.26 23.61 40.26H24.39V41.35L24.38 50.68C24.38 51.77 24.8 52.79 25.57 53.56C26.34 54.33 27.36 54.76 28.45 54.76C28.82 54.76 29.18 54.69 29.53 54.6L29.52 60.45ZM29.52 50.69C29.52 50.98 29.41 51.25 29.2 51.45C29 51.65 28.73 51.76 28.44 51.76C28.15 51.76 27.88 51.65 27.68 51.44C27.48 51.24 27.37 50.97 27.37 50.68L27.38 38.75L27.39 30.53C27.39 29.7 26.72 29.03 25.89 29.03C25.06 29.03 24.39 29.7 24.39 30.53V37.26H23.61C23.02 37.26 22.53 36.78 22.53 36.18L22.54 26.28C22.54 25.88 22.38 25.5 22.1 25.22C21.82 24.94 21.44 24.78 21.04 24.78L11.83 24.77C11.54 24.77 11.35 24.61 11.26 24.52C11.17 24.43 11.04 24.22 11.07 23.92C11.11 23.55 11.51 23.24 11.96 23.24L26.05 23.25C27.98 23.25 29.56 24.83 29.55 26.76L29.52 50.69Z" fill="black"/>
</svg>
