<svg width="97" height="59" viewBox="0 0 97 59" fill="none" xmlns="http://www.w3.org/2000/svg">
<path d="M35.2847 32.5C34.3447 29.33 35.0847 26.24 36.2047 23.92H34.8147C33.3247 26.71 32.2247 29.6 31.4047 32.5H35.2847Z" fill="#EC1E61"/>
<path d="M52.9547 8.58H34.6147C34.0947 8.58 33.5947 8.35 33.2647 7.95C32.9247 7.55 32.7847 7.02 32.8847 6.51L33.4147 3.53H14.5147L13.4747 11.37H14.6947L16.7347 7.39C17.1847 6.52 18.2447 6.18 19.1147 6.63C19.9847 7.07 20.3247 8.14 19.8747 9.01L18.6547 11.38H19.8747L21.9247 7.4C22.3747 6.53 23.4347 6.19 24.3047 6.64C25.1747 7.08 25.5147 8.15 25.0647 9.02L23.8447 11.39H25.0647L27.1047 7.41C27.5547 6.54 28.6147 6.2 29.4847 6.65C30.3547 7.09 30.6947 8.16 30.2447 9.03L29.0347 11.37H31.6047H42.7047H92.6447V3.53H55.4047L54.6947 7.16C54.5247 7.99 53.8047 8.58 52.9547 8.58Z" fill="#3D3D4D"/>
<path d="M20.9548 14.9H15.7748H12.5448C11.7048 16.04 10.2048 17.04 8.58476 17.88C11.1748 19.28 13.4348 21.65 13.0848 25.32C13.0748 25.44 13.0548 25.56 13.0148 25.67L4.13477 54.7H6.87476H19.0648C19.5348 54.63 22.4848 54.1 23.4548 51.71C24.4148 49.34 24.9948 46.11 25.6648 42.37C26.1348 39.78 26.6548 36.93 27.3748 33.99C27.3948 33.89 27.4148 33.79 27.4548 33.69C28.4748 29.61 29.9148 25.37 32.1948 21.38L30.2848 14.91H26.1448H20.9548V14.9ZM26.5148 25.73L19.4948 51.02C19.2848 51.79 18.5848 52.31 17.7948 52.31C17.7648 52.31 17.7448 52.31 17.7148 52.31L10.1548 51.96C9.61475 51.93 9.10475 51.66 8.79475 51.22C8.48475 50.77 8.39475 50.21 8.54475 49.69L16.3048 24.18C16.5448 23.39 17.3248 22.88 18.1348 22.94L24.9548 23.51C25.4748 23.55 25.9548 23.83 26.2548 24.26C26.5648 24.68 26.6548 25.23 26.5148 25.73Z" fill="#3D3D4D"/>
<path d="M90.9848 14.9H38.3748H33.9548L35.5748 20.39H39.4348H90.9848V14.9Z" fill="#A3A3A3"/>
<path d="M51.5047 5.06L51.8047 3.53H36.9947L36.7247 5.06H51.5047Z" fill="#EC1E61"/>
<path d="M9.43474 8.52999L9.86475 5.81999L6.65474 4.62L5.67474 5.56999L9.43474 8.52999Z" fill="#3D3D4D"/>
<path d="M19.2647 26.57L12.5747 48.54L16.4647 48.72L22.5447 26.84L19.2647 26.57Z" fill="#EC1E61"/>
<path d="M24.9648 23.5L18.1448 22.93C17.3348 22.87 16.5548 23.38 16.3148 24.17L8.55476 49.68C8.39476 50.2 8.48476 50.77 8.80476 51.21C9.11476 51.65 9.62476 51.93 10.1648 51.95L17.7248 52.3C17.7548 52.3 17.7848 52.3 17.8048 52.3C18.5948 52.3 19.2948 51.77 19.5048 51.01L26.5248 25.72C26.6648 25.21 26.5748 24.67 26.2748 24.24C25.9648 23.82 25.4848 23.55 24.9648 23.5ZM12.5748 48.54L19.2648 26.56L22.5448 26.83L16.4648 48.71L12.5748 48.54Z" fill="black"/>
<path d="M94.4047 0H53.9448H35.5148H12.9647C12.0847 0 11.3347 0.660001 11.2147 1.53L11.0848 2.5L6.85476 0.92C6.21476 0.68 5.50475 0.829999 5.01475 1.3L1.77476 4.42C1.40476 4.77 1.21475 5.27 1.23475 5.78C1.26475 6.29 1.50474 6.76 1.90474 7.08L9.51475 13.06C8.67475 13.93 5.84474 15.4 3.04474 16.38C2.27474 16.65 1.79475 17.4 1.87475 18.21C1.95475 19.02 2.56475 19.67 3.37475 19.79C3.43475 19.8 9.80475 20.8 9.59475 24.82L0.0747432 55.94C-0.0852568 56.47 0.0147475 57.06 0.344747 57.5C0.674747 57.95 1.20475 58.22 1.76475 58.22H6.88476H19.1847H27.5647C28.5347 58.22 29.3248 57.43 29.3248 56.46C29.3248 55.49 28.5347 54.7 27.5647 54.7H25.7847C26.1447 54.21 26.4747 53.66 26.7347 53.03C27.8347 50.32 28.4447 46.92 29.1547 42.99C29.5547 40.75 29.9847 38.41 30.5247 36.03H38.0247H39.8647C44.8147 36.03 48.8648 32.31 49.2948 27.39L49.5947 23.92H92.7648C93.7348 23.92 94.5247 23.13 94.5247 22.16V14.89C95.4447 14.83 96.1748 14.07 96.1748 13.14V1.77C96.1648 0.79 95.3747 0 94.4047 0ZM36.9947 3.53H51.8047L51.5047 5.05H36.7248L36.9947 3.53ZM9.43474 8.53L5.67475 5.57L6.65475 4.62L9.86475 5.82L9.43474 8.53ZM27.4548 33.68C27.4248 33.78 27.3947 33.88 27.3747 33.98C26.6547 36.92 26.1348 39.77 25.6648 42.36C24.9948 46.1 24.4147 49.33 23.4547 51.7C22.4847 54.09 19.5347 54.62 19.0647 54.69H6.87475H4.13476L13.0147 25.66C13.0547 25.55 13.0748 25.43 13.0848 25.31C13.4248 21.64 11.1748 19.26 8.58475 17.87C10.2048 17.04 11.7047 16.03 12.5447 14.89H15.7748H20.9547H26.1348H30.2747L32.1847 21.36C29.9147 25.37 28.4748 29.6 27.4548 33.68ZM35.2847 32.5H31.4047C32.2247 29.6 33.3147 26.7 34.8147 23.92H36.2048C35.0848 26.24 34.3447 29.33 35.2847 32.5ZM45.7648 27.08C45.4948 30.17 42.9547 32.5 39.8447 32.5H39.0547C37.3147 28.82 39.3347 25.29 40.3047 23.92H46.0448L45.7648 27.08ZM90.9848 20.39H39.4347H35.5748L33.9548 14.9H38.3747H90.9848V20.39ZM92.6348 11.37H42.6948H31.5947H29.0347L30.2548 9C30.7048 8.13 30.3547 7.07 29.4947 6.62C28.6247 6.17 27.5647 6.51 27.1147 7.38L25.0747 11.36H23.8548L25.0747 8.99C25.5247 8.12 25.1747 7.06 24.3147 6.61C23.4447 6.16 22.3847 6.5 21.9347 7.37L19.8848 11.35H18.6648L19.8848 8.98C20.3248 8.11 19.9847 7.05 19.1247 6.6C18.2547 6.15 17.1948 6.5 16.7448 7.36L14.7047 11.34H13.4847L14.5248 3.5H33.4248L32.8947 6.48C32.8047 6.99 32.9447 7.52 33.2747 7.92C33.6047 8.32 34.1047 8.55 34.6247 8.55H52.9647C53.8047 8.55 54.5348 7.95 54.6948 7.12L55.4047 3.49H92.6447V11.37H92.6348Z" fill="black"/>
</svg>
