<svg width="25" height="25" viewBox="0 0 25 25" fill="none" xmlns="http://www.w3.org/2000/svg">
<path d="M24.0878 7.818C24.0841 7.80334 24.0805 7.78502 24.0731 7.77037C24.0621 7.7374 23.9815 7.54323 23.8387 7.25015C23.1243 5.71513 22.1095 4.34496 20.8675 3.22391C20.3583 2.75498 19.7831 2.30437 19.1347 1.90505C19.1164 1.89406 19.098 1.88673 19.0797 1.8794C17.1674 0.688748 14.9106 0 12.5 0C5.60888 0 0 5.60888 0 12.5C0 19.3911 5.60888 25 12.5 25C19.3911 25 25 19.3911 25 12.5C25 10.8441 24.6739 9.26509 24.0878 7.818ZM22.8239 7.67878L13.8738 11.3423L19.0174 3.13966C21.1386 4.61973 22.3549 6.73359 22.8239 7.67878ZM17.226 17.6766C16.1599 17.6766 15.2953 18.5448 15.2953 19.6073C15.2953 19.7135 15.3099 19.8161 15.3283 19.9187C14.6139 20.1934 13.8482 20.3656 13.0532 20.4206V18.0466C15.6873 17.7865 17.7865 15.6873 18.0466 13.0532H20.4206C20.2887 14.9546 19.4864 16.6728 18.2481 17.9733C17.9477 17.7865 17.5996 17.6766 17.226 17.6766ZM18.0576 19.6073C18.0576 20.0652 17.6839 20.4389 17.226 20.4389C16.768 20.4389 16.3943 20.0652 16.3943 19.6073C16.3943 19.1493 16.768 18.7756 17.226 18.7756C17.6839 18.7756 18.0576 19.1457 18.0576 19.6073ZM18.0429 11.9505C18.0063 11.5914 17.9367 11.2434 17.8378 10.91L20.0396 10.0088C20.2447 10.6279 20.3766 11.2764 20.4206 11.9505H18.0429ZM14.9766 7.51758C14.3867 7.22084 13.7383 7.02667 13.0495 6.95706V6.642C13.1594 6.66032 13.273 6.67497 13.3902 6.67497C14.3428 6.67497 15.1341 5.97889 15.288 5.06667C15.6177 5.19123 15.9327 5.33412 16.2405 5.49898L14.9766 7.51758ZM13.0495 1.11372C14.8703 1.20164 16.5812 1.7182 18.0832 2.56448L16.8266 4.56844C16.2808 4.26803 15.6983 4.02623 15.0865 3.84305C14.7604 3.2349 14.1266 2.8136 13.3902 2.8136C13.273 2.8136 13.1594 2.82825 13.0495 2.84657V1.11372ZM13.3902 3.91266C13.8482 3.91266 14.2219 4.28635 14.2219 4.74429C14.2219 5.20223 13.8482 5.57591 13.3902 5.57591C12.9323 5.57591 12.5586 5.20223 12.5586 4.74429C12.5586 4.28635 12.9323 3.91266 13.3902 3.91266ZM11.9505 1.11372V3.46937C11.9468 3.47304 11.9431 3.4767 11.9431 3.48036C7.6165 3.74414 4.10683 7.06697 3.54631 11.3057C3.52799 11.3057 3.51334 11.302 3.49502 11.302C2.92351 11.302 2.41794 11.5548 2.06257 11.9505H1.11372C1.39215 6.09979 6.09979 1.39215 11.9505 1.11372ZM11.9505 6.0192V6.95706C9.31638 7.21717 7.21717 9.31638 6.95706 11.9505H4.9238C4.82855 11.8442 4.7223 11.7453 4.60507 11.661C4.98974 8.01582 7.85097 5.09964 11.4705 4.63071C11.4669 4.67101 11.4596 4.70765 11.4596 4.74429C11.4596 5.2352 11.6464 5.67849 11.9505 6.0192ZM4.32298 13.2364C4.32298 13.6943 3.9493 14.068 3.49135 14.068C3.03341 14.068 2.65973 13.6943 2.65973 13.2364C2.65973 12.7784 3.03341 12.4047 3.49135 12.4047C3.9493 12.4047 4.32298 12.7748 4.32298 13.2364ZM11.9505 23.8863C6.09979 23.6079 1.39215 18.9002 1.11372 13.0495H1.57899C1.57166 13.1118 1.56067 13.1704 1.56067 13.2327C1.56067 14.2988 2.42893 15.1634 3.49135 15.1634C3.61591 15.1634 3.73681 15.1487 3.85404 15.1268C4.93113 18.6621 8.12207 21.2852 11.9505 21.516V23.8863ZM11.9505 20.4169C8.54704 20.1825 5.72611 17.7938 4.84686 14.6065C5.20223 14.2548 5.42204 13.7712 5.42204 13.2327C5.42204 13.1704 5.41105 13.1081 5.40372 13.0495H6.95706C7.21717 15.6836 9.31638 17.7828 11.9505 18.0429V20.4169ZM12.5 15.8411C12.1959 15.8411 11.9505 16.0866 11.9505 16.3907V16.9329C9.92453 16.6838 8.31624 15.0755 8.06712 13.0495H8.60932C8.91339 13.0495 9.15885 12.8041 9.15885 12.5C9.15885 12.1959 8.91339 11.9505 8.60932 11.9505H8.06712C8.31624 9.92453 9.92453 8.31623 11.9505 8.06711V8.60932C11.9505 8.9134 12.1959 9.15885 12.5 9.15885C12.8041 9.15885 13.0495 8.9134 13.0495 8.60932V8.06711C13.5221 8.12573 13.9727 8.25762 14.3904 8.45545L12.0347 12.2106C11.9065 12.4121 11.9248 12.6722 12.0787 12.8554C12.1849 12.9836 12.3388 13.0495 12.5 13.0495C12.5696 13.0495 12.6392 13.0349 12.7088 13.0092L16.812 11.3313C16.8669 11.5328 16.9109 11.7417 16.9365 11.9541H16.3943C16.0903 11.9541 15.8448 12.1996 15.8448 12.5037C15.8448 12.8077 16.0903 13.0532 16.3943 13.0532H16.9365C16.6874 15.0791 15.0791 16.6874 13.0532 16.9366V16.3943C13.0495 16.0866 12.8041 15.8411 12.5 15.8411ZM13.0495 23.8863V21.5196C14.0167 21.461 14.9436 21.2485 15.8082 20.9078C16.1599 21.2925 16.6654 21.538 17.226 21.538C18.2921 21.538 19.1567 20.6697 19.1567 19.6073C19.1567 19.3178 19.087 19.0431 18.9735 18.7976C20.4389 17.2919 21.3841 15.2806 21.5196 13.0495H23.8863C23.6079 18.9002 18.9002 23.6079 13.0495 23.8863ZM21.5196 11.9505C21.4683 11.1298 21.3108 10.3385 21.0544 9.59115L23.2452 8.69359C23.6115 9.71938 23.8313 10.8148 23.8863 11.9505H21.5196Z" fill="#A6A6A6"/>
</svg>
