<svg width="13" height="29" viewBox="0 0 13 29" fill="none" xmlns="http://www.w3.org/2000/svg">
<path d="M12.9976 11.6045V10.0572C12.9976 8.80666 11.9953 7.77765 10.7096 7.63119V7.37206C10.7096 6.49702 9.96284 5.78347 9.04043 5.76094V5.08496H9.89096C11.037 5.08496 11.9674 4.20992 11.9674 3.13209C11.9674 2.61007 11.7518 2.12186 11.3604 1.75007C10.9691 1.38203 10.446 1.17923 9.89096 1.17923H8.82081C8.71699 0.96892 8.57723 0.773634 8.40153 0.604636C7.99024 0.217819 7.43919 0.0037555 6.85619 0H6.21729C6.21729 0 6.21729 0 6.2133 0C5.6303 0 5.08324 0.214066 4.66796 0.600883C4.25667 0.9877 4.02906 1.50596 4.02507 2.05426L4.02107 5.75343C3.57784 5.7647 3.16655 5.92619 2.85109 6.22287C2.52765 6.52707 2.34796 6.93266 2.34796 7.36454V7.71756C1.29776 7.99171 0.00798643 8.89679 0.00798643 11.6796L0 25.5036C0 27.494 0.958349 28.9962 2.22816 28.9962L10.7495 29C12.0233 29 12.9816 27.4978 12.9816 25.5111V23.2691V22.4204L12.9896 11.6871C13.0016 11.6646 13.0016 11.6346 12.9976 11.6045ZM9.04442 2.30964H9.89496C10.1306 2.30964 10.3502 2.39601 10.5139 2.54999C10.6816 2.70772 10.7695 2.91427 10.7695 3.13585C10.7695 3.59026 10.3741 3.96206 9.89096 3.96206H9.04043L9.04442 2.30964ZM5.23099 2.06177C5.23099 1.81391 5.33481 1.58107 5.52249 1.40456C5.71016 1.22805 5.95774 1.13416 6.22128 1.13416H6.86018C7.12373 1.13416 7.3713 1.23181 7.55898 1.40831C7.74666 1.58482 7.84649 1.81766 7.84649 2.06553L7.84249 5.08871V5.76094H5.227L5.23099 2.06177ZM3.55388 7.37206C3.55388 7.24061 3.60978 7.12044 3.70562 7.02655C3.80145 6.93642 3.93323 6.88384 4.07298 6.88384L8.9965 6.88759C9.28001 6.88759 9.51561 7.10541 9.51561 7.37581V7.61616H6.31712H3.55787L3.55388 7.37206ZM11.7957 25.5149C11.7957 26.9382 11.1728 27.8809 10.7615 27.8809L2.24014 27.8771C1.82885 27.8771 1.20592 26.9345 1.20592 25.5111L1.21391 11.6871C1.21391 9.73051 1.89673 8.73906 3.24242 8.73906H3.25839C3.24641 8.78788 3.23443 8.83295 3.22644 8.88177C3.18252 9.27985 3.32228 9.67793 3.60579 9.97462C3.8893 10.2713 4.2966 10.4403 4.71987 10.4403H7.79857V12.9415H7.76662C6.08552 12.9415 4.71588 14.1883 4.71188 15.7168L4.70789 21.0534C4.70789 22.5405 6.00166 23.7573 7.61888 23.8287C7.64284 24.1779 7.79457 24.5084 8.06211 24.76C8.35361 25.0342 8.74094 25.1882 9.15623 25.1882C9.56752 25.1882 9.95885 25.0379 10.2503 24.7638C10.5139 24.5159 10.6656 24.1892 10.6936 23.8399H11.7957V25.5149ZM8.80883 23.731V23.0663C8.80883 22.886 8.96456 22.7396 9.15623 22.7396C9.3479 22.7396 9.50363 22.886 9.50363 23.0663V23.731C9.50363 23.8174 9.46769 23.9 9.39981 23.9639C9.33193 24.0277 9.24807 24.0615 9.15224 24.0615C9.06039 24.0615 8.97254 24.0277 8.90466 23.9639C8.84476 23.9 8.80883 23.8174 8.80883 23.731ZM11.7957 22.7095H10.6536C10.4819 22.0824 9.88298 21.6129 9.16022 21.6129C8.44146 21.6129 7.84249 22.0749 7.67079 22.702C6.69247 22.657 5.91381 21.9397 5.91381 21.0571L5.91781 15.7205C5.91781 14.8117 6.75237 14.0681 7.77461 14.0681H7.8944C8.10604 14.6803 8.71299 15.1272 9.43575 15.1272H9.74721V15.5365L9.74322 19.0404C9.74322 19.4498 9.91093 19.8328 10.2184 20.122C10.5259 20.4112 10.9332 20.5726 11.3684 20.5726C11.5162 20.5726 11.6599 20.5464 11.7997 20.5126L11.7957 22.7095ZM11.7957 19.0442C11.7957 19.1531 11.7518 19.2545 11.6679 19.3296C11.588 19.4047 11.4802 19.446 11.3644 19.446C11.2486 19.446 11.1408 19.4047 11.0609 19.3258C10.9811 19.2507 10.9372 19.1493 10.9372 19.0404L10.9412 14.5601L10.9451 11.4731C10.9451 11.1614 10.6776 10.9097 10.3462 10.9097C10.0147 10.9097 9.74721 11.1614 9.74721 11.4731V14.0005H9.43575C9.20015 14.0005 9.00449 13.8203 9.00449 13.5949L9.00848 9.87698C9.00848 9.72676 8.94459 9.58405 8.83279 9.47889C8.72098 9.37374 8.56924 9.31365 8.40952 9.31365L4.73185 9.3099C4.61605 9.3099 4.54018 9.24981 4.50424 9.21601C4.4683 9.18221 4.41639 9.10334 4.42837 8.99068C4.44434 8.85172 4.60407 8.7353 4.78376 8.7353L10.4101 8.73906C11.1807 8.73906 11.8117 9.33243 11.8077 10.0572L11.7957 19.0442Z" fill="#A6A6A6"/>
</svg>
